<svg xmlns="http://www.w3.org/2000/svg" viewBox="0 0 1100 300" role="img" aria-labelledby="title desc">
  <title id="title">Ashen Kavinda</title>
  <desc id="desc">Senior Software Quality Assurance Engineer. Playwright, TypeScript, ISTQB CTAL-TAE.</desc>
  <defs>
    <linearGradient id="edge" x1="0" y1="0" x2="1" y2="0">
      <stop offset="0" stop-color="#3ee0c5" stop-opacity="0"/>
      <stop offset="0.35" stop-color="#3ee0c5" stop-opacity="0.85"/>
      <stop offset="0.65" stop-color="#3ee0c5" stop-opacity="0.85"/>
      <stop offset="1" stop-color="#3ee0c5" stop-opacity="0"/>
    </linearGradient>
  </defs>

  <rect width="1100" height="300" rx="28" fill="#0c1118"/>
  <rect x="1" y="1" width="1098" height="298" rx="27" fill="none" stroke="#273246"/>
  <rect x="28" y="1" width="1044" height="1.5" fill="url(#edge)"/>

  <rect x="40" y="40" width="72" height="72" rx="16" fill="#3ee0c5"/>
  <path fill="#04251f" fill-rule="evenodd" d="M76 49 103 103H89.5L84 90H68L62.5 103H49Z M76 64.5 81.4 78h-10.8Z"/>

  <text x="132" y="72" fill="#8f9cb0" font-family="Segoe UI, Helvetica, Arial, sans-serif" font-size="13" letter-spacing="3.2">SENIOR SOFTWARE QUALITY ASSURANCE ENGINEER</text>
  <text x="132" y="112" fill="#eef3f8" font-family="Segoe UI, Helvetica, Arial, sans-serif" font-size="42" font-weight="700">Ashen Kavinda</text>

  <text x="40" y="168" fill="#eef3f8" font-family="Segoe UI, Helvetica, Arial, sans-serif" font-size="20">I lead test automation strategy and build quality systems</text>
  <text x="40" y="196" fill="#8f9cb0" font-family="Segoe UI, Helvetica, Arial, sans-serif" font-size="20">that keep releases reliable.</text>

  <g font-family="Segoe UI, Helvetica, Arial, sans-serif" font-size="13" font-weight="600">
    <rect x="40" y="226" width="118" height="36" rx="18" fill="#121924" stroke="#273246"/>
    <text x="99" y="249" text-anchor="middle" fill="#3ee0c5">4+ years QA</text>

    <rect x="168" y="226" width="148" height="36" rx="18" fill="#121924" stroke="#273246"/>
    <text x="242" y="249" text-anchor="middle" fill="#3ee0c5">ISTQB CTAL-TAE</text>

    <rect x="326" y="226" width="196" height="36" rx="18" fill="#121924" stroke="#273246"/>
    <text x="424" y="249" text-anchor="middle" fill="#3ee0c5">Playwright + TypeScript</text>

    <rect x="532" y="226" width="188" height="36" rx="18" fill="#121924" stroke="#273246"/>
    <text x="626" y="249" text-anchor="middle" fill="#3ee0c5">Pearson+ winner 2023</text>
  </g>
</svg>
